<?xml version="1.0" encoding="UTF-8" standalone="no"?>
<svg
   width="1024"
   height="1024"
   version="1.1"
   id="svg6"
   xmlns="http://www.w3.org/2000/svg"
   xmlns:svg="http://www.w3.org/2000/svg">
  <defs
     id="defs6" />
  <path
     style="fill:#ffffff;stroke:#000000"
     d="m 65.720729,485.80052 6.216825,-89.69991 55.063316,-45.29402 61.28014,-31.97224 71.04943,-31.08413 67.49697,-7.99306 53.28707,17.76235 13.00991,5.6447 1.64404,-35.84071 27.53166,-36.41283 50.62272,-35.08066 65.27667,-26.64354 94.58456,-25.31136 319.72247,342.36947 6.21682,106.1301 L 733.14137,708.27407 768,751.12576 l 19.5386,9.10321 4.88464,25.08933 -33.74848,35.08066 -22.64701,5.10668 -19.98265,-13.5438 -6.21683,-20.64874 -47.95836,-48.62446 -279.53513,132.32957 z"
     id="path18" />
  <path
     fill="#302f3c"
     d="m 632.26242,138.37718 c 0.29792,0 0.59584,-0.0116 0.89376,0 2.50805,0.0941 4.61115,2.81647 6.29495,4.52492 22.90897,23.23085 44.92969,47.70327 67.38847,71.43353 l 128.37386,135.22372 83.53796,88.10697 c 13.79592,14.62584 28.22299,28.56876 41.16046,44.06103 0.4756,20.35284 -0.171,40.88685 -0.4392,61.25246 10.0388,11.35876 24.0532,23.30635 32.5307,35.46764 1.8891,2.70961 4.2305,6.79783 3.372,10.33089 -0.7161,2.94539 -3.5077,5.39134 -5.8535,6.91166 -6.8555,4.44244 -14.7162,7.70373 -22.0362,11.20311 l -35.19985,16.84881 -114.79642,55.7415 -45.43505,21.81159 c -10.01564,4.84431 -20.28065,9.44704 -29.83176,15.25765 9.2267,11.10789 19.67378,21.47943 29.5228,31.99266 1.10893,-0.13937 2.22447,-0.27874 3.34112,-0.31706 4.19075,-0.14519 8.39253,1.36351 11.44897,4.42502 5.35705,5.3658 8.27667,15.03467 8.51831,22.68266 0.43144,13.66883 -7.5429,25.62223 -16.1561,35.06811 -9.16823,10.05331 -23.06786,20.04739 -36.82406,20.09035 -10.01343,0.0314 -20.90849,-6.45985 -27.73307,-13.91039 -2.36902,-2.5865 -5.5027,-6.70841 -5.7289,-10.45866 -0.085,-1.42506 0.2251,-2.89891 0.11145,-4.30888 -0.36633,-4.56905 -38.80578,-45.98204 -45.23865,-52.96453 l -197.33138,98.5087 c -30.28195,14.65952 -59.40641,32.15874 -90.34599,45.29912 -6.73631,-6.67589 -12.79844,-14.23445 -18.96097,-21.49684 L 328.04606,837.35727 C 245.89435,743.24457 164.84457,648.09085 84.896741,551.89609 L 49.961502,509.82458 c -5.427335,-6.4645 -11.53084,-12.60148 -16.532701,-19.43299 -1.103409,-1.50753 -2.023762,-3.16954 -2.49911,-5.02085 -0.07562,-0.2888 -0.137338,-0.58109 -0.185152,-0.87687 -0.04781,-0.29501 -0.08151,-0.59233 -0.101072,-0.89198 -0.01956,-0.29887 -0.02486,-0.59814 -0.01589,-0.89779 0.0089,-0.29887 0.03211,-0.59697 0.0694,-0.89429 0.03737,-0.29732 0.08875,-0.59195 0.154146,-0.88384 0.06532,-0.29114 0.144362,-0.57839 0.237123,-0.86178 0.09276,-0.2834 0.198723,-0.56135 0.317892,-0.83391 0.119168,-0.27177 0.250951,-0.53696 0.395351,-0.79558 4.117369,-7.2473 23.383986,-9.81869 31.171622,-11.89649 -0.32881,-11.91391 0.38179,-23.95441 0.48439,-35.8811 0.10594,-12.33435 -0.39611,-24.9486 0.39613,-37.24811 0.1622,-2.50404 0.34427,-6.13001 1.52049,-8.31465 2.17151,-4.03479 17.16242,-12.90112 21.9159,-16.1148 52.788169,-35.68366 110.065009,-69.96315 170.621169,-88.46585 45.48802,-13.89878 84.08194,-14.53641 126.95709,10.27515 2.94169,-13.78962 4.68507,-23.83247 11.94881,-36.12268 32.15553,-54.40587 118.66608,-87.99199 174.70158,-102.95697 20.09638,-5.36695 40.57895,-8.36228 60.74374,-13.33202 z m -232.54777,166.7576 c 1.0865,-0.32519 2.17666,-0.63646 3.27051,-0.93378 1.09311,-0.29732 2.1899,-0.58071 3.29036,-0.85016 1.09973,-0.26945 2.20277,-0.52535 3.30912,-0.76771 1.10562,-0.24158 2.21418,-0.46921 3.32568,-0.68291 1.11076,-0.21371 2.2241,-0.41309 3.34001,-0.59814 1.11519,-0.18583 2.23256,-0.35733 3.35216,-0.51452 1.11959,-0.15717 2.24102,-0.30042 3.36429,-0.42972 1.12253,-0.12853 2.24654,-0.24312 3.37202,-0.34379 1.12547,-0.10073 2.25205,-0.1866 3.37974,-0.25783 1.12768,-0.072 2.25573,-0.12969 3.38415,-0.17305 1.12915,-0.0434 2.25832,-0.0728 3.38747,-0.0883 1.12915,-0.0147 2.25867,-0.015 3.38856,-10e-4 1.12916,0.0139 2.25832,0.0418 3.38747,0.0836 1.12842,0.0426 2.25647,0.0991 3.38415,0.16957 1.12769,0.0712 2.25427,0.15641 3.37974,0.25552 1.12548,0.0999 2.24949,0.2137 3.37202,0.34145 1.12327,0.12776 2.2447,0.26945 3.36429,0.42509 1.1196,0.1564 2.23735,0.32674 3.35326,0.51102 1.11591,0.18429 2.22963,0.38289 3.34112,0.59582 1.1115,0.21291 2.22006,0.4394 3.32568,0.67943 1.10635,0.2408 2.20976,0.49554 3.31022,0.76421 1.10046,0.26869 2.19763,0.5513 3.29147,0.84785 1.09384,0.29578 2.18401,0.60588 3.2705,0.9303 1.08722,0.32366 2.17004,0.66124 3.24844,1.01276 1.07913,0.35153 2.15421,0.71622 3.22526,1.09407 1.07105,0.37863 2.1373,0.7708 3.19878,1.17653 1.06222,0.40571 2.11929,0.82461 3.1712,1.25666 1.05191,0.43204 2.09904,0.87765 3.1414,1.3368 1.04236,0.45838 2.07919,0.92992 3.11051,1.41462 1.03058,0.48548 2.05601,0.98373 3.0763,1.49475 1.01955,0.51025 2.03359,1.03367 3.0421,1.57025 1.00778,0.53658 2.00931,1.08593 3.00458,1.64806 1.02912,0.57529 2.05087,1.16376 3.06527,1.76537 1.0144,0.60162 2.02181,1.21679 3.02224,1.84551 0.99969,0.62872 1.99201,1.2706 2.97699,1.92564 0.98498,0.65504 1.96186,1.32286 2.93066,2.00346 0.96879,0.6806 1.92912,1.37397 2.881,2.08012 0.9526,0.70615 1.89639,1.42468 2.83134,2.1556 0.93495,0.73093 1.86109,1.47424 2.77839,2.22995 0.91803,0.75492 1.8265,1.52224 2.72542,2.30194 0.89891,0.7797 1.78826,1.57103 2.66804,2.37396 0.88052,0.80293 1.75111,1.61748 2.61177,2.44364 0.86065,0.82616 1.71138,1.66355 2.55218,2.51216 0.8408,0.84862 1.6713,1.70808 2.4915,2.57837 0.82019,0.8703 1.63009,1.75143 2.4297,2.64341 0.79887,0.89198 1.58707,1.79441 2.36461,2.70728 0.77753,0.91288 1.5444,1.83584 2.3006,2.76884 0.75547,0.93301 1.49954,1.87609 2.2322,2.82923 0.7334,0.95238 1.45503,1.91443 2.16489,2.88615 0.71059,0.9725 1.40905,1.9539 2.09537,2.94422 0.68706,0.99031 1.36197,1.98952 2.02475,2.99764 0.66279,1.00812 1.31342,2.02475 1.95193,3.0499 0.63851,1.02516 1.26487,2.05883 1.87911,3.10101 0.61423,1.04142 1.21559,2.09135 1.80407,3.1498 0.58922,1.05767 1.16556,2.12308 1.72904,3.19624 0.56348,1.07316 1.11408,2.15329 1.6518,3.24038 0.53773,1.08787 1.06222,2.18232 1.57347,3.28335 0.51198,1.10182 1.01035,2.21019 1.49511,3.32516 0.48476,1.1142 0.95666,2.23498 1.41568,3.36233 0.45828,1.12737 0.90295,2.26053 1.33402,3.3995 0.43107,1.13898 0.84888,2.28336 1.25347,3.43317 0.40385,1.14982 0.79409,2.30466 1.17072,3.46454 0.3759,1.16065 0.73818,2.32595 1.08685,3.49589 0.34868,1.16995 0.68338,2.34414 1.00411,3.52261 6.4748,23.48056 7.20967,51.71019 1.54477,75.5415 -3.24402,13.6456 -8.30756,26.46426 -13.64586,39.31312 4.1091,3.77696 8.29984,7.48887 12.29198,11.40288 5.56338,-2.01158 11.10691,-2.92331 16.65374,-0.12427 3.97889,2.00811 6.86872,5.64337 8.2866,10.01498 1.38588,4.27405 1.06038,7.90931 0.63667,12.28789 1.46643,1.59697 2.89865,3.27755 4.47984,4.74792 6.00143,-0.16028 10.17011,-0.21255 14.88056,4.37858 3.09727,3.0197 5.05803,7.11024 5.17278,11.58174 0.0916,3.53654 -1.41346,6.74673 -2.68459,9.93368 14.03536,16.7106 29.06819,32.3736 44.24448,47.91813 l 8.18949,-10.26004 c 10.36101,-12.65375 21.67426,-24.11818 33.43659,-35.31899 49.31906,-46.97156 108.01267,-81.88868 172.92509,-98.20092 12.77306,-3.21018 25.87162,-5.90585 38.9117,-7.56437 6.9912,-0.88848 14.03757,-1.2253 21.02104,-2.10101 -12.85471,-15.1636 -26.708,-29.48746 -40.30862,-43.91238 l -68.27892,-71.95152 -95.4305,-100.39138 c -29.91892,-31.69997 -59.50903,-63.80529 -89.87924,-95.02675 -3.05093,-3.13585 -13.47814,-14.73153 -16.66368,-15.68042 l -1.47967,0.26016 c -17.35993,3.11146 -34.6051,6.55161 -51.66931,11.17408 -52.92279,14.33317 -133.2719,45.08426 -166.33443,93.94198 -7.88496,11.65027 -13.67234,26.7523 -11.29229,41.27593 0.31889,1.94772 0.83639,3.87219 1.33292,5.77578 z m 291.53379,317.45618 c 49.03327,-43.80437 114.69049,-80.32426 176.33903,-99.47502 20.4605,-6.35649 40.89342,-10.43541 61.65957,-15.20539 l 0.59033,0.47037 c -4.94217,2.8304 -20.14604,5.73629 -26.58994,7.57831 -11.36144,3.36968 -22.64672,7.00224 -33.85589,10.89766 -57.3,20.14843 -108.93401,49.6986 -157.54136,87.3625 -12.34714,9.56783 -24.86531,18.69664 -35.36204,30.56526 l 9.68572,10.22636 c 35.60589,-27.24126 68.56912,-46.02385 108.57761,-65.23036 8.49514,-4.07893 17.85867,-9.65029 26.87572,-12.14387 l 0.25158,0.57375 c -12.08453,4.57718 -27.65914,13.97195 -39.0397,20.53517 -23.21351,13.38893 -46.0342,26.73488 -68.3385,41.77767 -8.22592,5.5493 -17.02119,11.09163 -24.41513,17.84184 l -0.48439,0.45179 c 3.32457,3.39369 6.41963,7.06728 9.65372,10.56317 30.66593,-19.91033 68.59229,-36.75798 101.88654,-51.7369 8.51059,-3.82922 19.44868,-9.87212 28.19209,-12.28092 12.7223,-7.25194 27.21116,-12.6607 40.54033,-18.66993 15.37931,-6.98327 30.80938,-13.83878 46.2902,-20.56654 4.21502,-1.82576 8.34618,-4.02667 12.59099,-5.72815 1.66284,-0.66666 3.22747,-1.0058 4.99513,-1.13123 -15.68826,7.95461 -31.98671,14.78031 -47.81952,22.47825 -13.52411,6.72001 -27.10486,13.3111 -40.74225,19.77328 -4.21834,2.00346 -9.68352,5.45522 -14.15674,6.49005 -4.38163,2.72703 -9.39221,4.7572 -14.0177,7.00573 l -27.7761,13.47719 c -28.99317,14.06487 -58.16508,28.44216 -85.89153,45.13419 4.14587,4.7781 8.38444,9.4633 12.71568,14.05558 19.74549,-11.37618 41.03025,-20.33309 61.5724,-30.031 l 96.29999,-45.45591 c 24.41181,-11.40636 48.97147,-22.26222 72.73779,-35.13431 -0.28357,-8.87678 0.43364,-17.9963 0.59695,-26.89166 0.35529,-19.34473 0.46894,-38.86133 -0.45571,-58.18282 -30.06899,3.74211 -59.00809,8.10443 -88.01559,17.67342 -55.47387,18.29712 -101.50918,49.15738 -144.92279,89.33111 -6.23205,5.76648 -18.9389,16.18913 -22.62649,23.60136 z m -54.30315,95.06158 c -2.84238,-3.25432 -5.7175,-6.4765 -8.62535,-9.66656 -17.41509,4.96394 -34.37779,13.60844 -50.75458,21.49453 -24.02121,11.56083 -47.83939,23.56844 -71.45454,36.0228 -14.42817,7.6027 -28.71841,15.93361 -43.39926,22.94863 -4.59239,2.70843 -50.2735,27.20292 -53.33326,27.56064 6.53439,-4.43201 13.42076,-8.19735 20.19128,-12.2031 12.01979,-7.09554 24.08667,-14.10167 36.20063,-21.01834 15.93432,-9.90813 32.55055,-18.86621 48.95713,-27.87656 23.58646,-12.95455 47.6198,-25.91839 72.12761,-36.8207 12.1706,-5.41341 24.74615,-9.64564 37.03039,-14.73618 -4.46108,-5.23223 -9.22008,-10.39825 -13.30269,-15.95916 -19.90659,7.51675 -39.8827,14.90111 -59.306,23.73259 -9.05384,4.11997 -18.05213,8.36924 -26.99489,12.74782 -4.89914,2.4448 -15.46428,8.9755 -20.327,9.99987 l 0.49212,-0.57955 0.21269,-0.19743 0.2708,-0.18772 0.82943,-0.52278 c 22.15129,-13.45474 43.79406,-24.99729 67.13703,-35.99522 10.79244,-4.95232 22.22817,-8.66192 32.87937,-13.84072 -3.01892,-3.73399 -5.95068,-7.71187 -9.34918,-11.06839 -44.869,10.45051 -88.80673,30.69185 -129.72333,52.47092 -10.66555,5.75216 -21.28328,11.60032 -31.8532,17.5445 -4.97416,2.8362 -17.79246,11.64446 -22.41133,12.67929 6.25522,-6.42036 17.9326,-11.63168 25.58584,-16.40979 48.54446,-30.30626 98.36556,-57.88085 153.75115,-71.48928 -3.66,-4.90006 -7.19643,-10.30302 -11.99184,-14.04165 -59.274,13.77452 -113.02766,44.00296 -160.952,82.77254 -8.95637,7.24614 -22.23258,17.66065 -29.62542,26.24707 -0.30895,27.49794 0.0949,54.99122 -0.0982,82.48567 L 560.617,755.06905 c 17.28747,-8.78192 34.64997,-17.39546 52.0875,-25.84057 7.95668,-3.86406 16.57099,-7.20201 24.24079,-11.57594 z m -67.99094,-94.35777 c 12.11322,13.13922 23.54012,27.07982 35.21198,40.65457 l 70.25402,81.51936 c 12.87788,14.75128 25.47329,30.64192 39.46341,44.21435 l 0.98865,-0.10685 c 1.54147,-2.10915 3.02776,-4.19857 4.37392,-6.45637 C 708.93828,769.02475 697.33704,756.25835 685.7987,743.28986 669.31157,724.75815 652.585,706.43432 636.25897,687.74929 L 593.9907,638.99261 c -6.74845,-7.68515 -13.46931,-16.6235 -21.32448,-23.06012 -1.21154,2.46842 -2.44883,4.92251 -3.71187,7.36228 z M 743.0965,819.90684 c 14.48886,-2.34608 28.8442,-15.00678 37.31066,-27.08214 2.34364,-3.34374 6.94706,-10.13693 6.49245,-14.404 -0.17544,-1.63994 -0.74149,-2.65735 -2.01703,-3.61669 -1.87248,-1.40881 -4.89141,-1.23227 -7.06071,-1.17768 -16.45734,5.14395 -33.21591,19.39349 -41.31161,35.41073 -1.04383,2.06617 -2.45288,5.11143 -1.58009,7.50165 0.65102,1.78395 2.44185,2.43319 4.03738,2.90124 1.35278,0.38792 2.72909,0.54354 4.12895,0.46689 z M 604.24688,570.96206 c -18.05949,6.04755 -34.55876,15.64325 -43.61333,34.09019 -1.51277,3.08359 -2.93507,6.35416 -3.4978,9.7885 l 0.49763,0.48199 c 0.72163,-0.98141 1.27554,-1.88151 1.79194,-2.99763 7.14678,-13.45513 19.01725,-26.5177 32.14229,-33.57336 3.86965,-2.08127 14.5021,-3.77929 16.75416,-7.13232 -0.87611,-0.85482 -1.72463,-0.73983 -2.87218,-0.73635 -0.56163,0.001 -0.70397,0.0267 -1.20271,0.079 z m 168.33711,188.16037 c -19.57116,5.57717 -39.37403,21.06363 -49.26719,39.87526 -1.25899,2.39254 -2.881,5.73976 -2.18034,8.54693 0.256,1.0267 0.81101,1.38094 1.49181,2.10334 l 1.87249,0.52497 c 0.26592,-0.5238 0.52081,-0.9152 0.59253,-1.51218 6.31039,-17.37494 24.64794,-34.5745 40.52047,-42.08428 3.37533,-1.59696 12.00509,-2.84202 14.05632,-4.69333 l -0.11917,-1.10567 c -2.01261,-1.3972 -4.59018,-1.74098 -6.96692,-1.65504 z M 580.09547,543.10873 c -23.85569,7.96042 -38.83667,19.74193 -50.14109,43.74861 -1.12548,2.39022 -1.87359,4.25083 -1.10672,6.86985 1.20382,1.02321 2.0711,1.40648 3.51105,1.90241 0.93458,-0.75957 0.66204,-0.34378 1.01844,-1.07083 8.22371,-17.49573 21.95342,-35.91132 40.18173,-42.55584 3.62359,-1.32053 11.6211,-2.85478 13.51675,-6.38783 -0.12358,-0.80604 0.021,-1.17654 -0.67308,-1.69221 -1.80297,-1.33796 -4.24039,-1.13007 -6.30708,-0.81416 z m 5.72448,16.18216 c -17.98114,7.81988 -33.43438,19.81161 -41.74746,38.81139 -1.02396,2.34026 -1.09127,4.83502 -0.39502,7.26472 1.02176,1.21136 1.18286,1.73052 2.72983,2.04411 0.72053,-0.49826 1.14865,-0.7259 1.61319,-1.50869 6.58293,-14.31575 15.20276,-25.78832 28.0332,-34.42237 5.01719,-3.37625 10.28818,-5.57948 15.55806,-8.36575 0.20192,-0.10685 1.12437,-0.6411 1.12878,-0.67362 0.0419,-0.36353 -0.17544,-0.70964 -0.26371,-1.06503 -2.05344,-1.49359 -4.12565,-2.47384 -6.65687,-2.08476 z M 74.586491,484.66343 c 15.71033,16.46555 30.114229,34.12736 44.792869,51.59405 l 60.68968,71.57871 c 48.2219,55.30558 95.88546,111.13922 142.99072,167.50092 17.35441,20.44807 35.49113,40.24342 52.51342,60.9865 0.93238,-9.20896 0.73266,-18.7582 0.92576,-28.02174 0.33102,-15.84418 0.80548,-31.81844 -0.0761,-47.64287 -11.76233,-15.73965 -24.79138,-30.55597 -37.46403,-45.48958 L 295.06407,663.15144 149.66682,492.33233 99.410981,433.29006 c -5.03596,-5.95811 -18.00432,-22.83016 -23.02593,-26.48517 z M 606.84651,584.72149 c -1.64077,0.93261 -3.23078,1.6074 -4.20951,3.36232 0.27365,1.78279 0.91694,2.52145 2.07221,3.83736 4.27791,4.87566 9.11194,9.33554 13.52006,14.10551 l 51.16616,54.60563 c 28.66324,30.69882 56.48459,62.16303 85.62671,92.38102 1.19279,-0.40534 2.52129,-0.58768 3.38195,-1.5598 -3.93365,-5.9163 -9.21126,-11.18801 -13.94267,-16.41444 L 722.3458,710.75135 643.92435,625.76861 c -3.91269,-4.21946 -35.63238,-40.26085 -37.07784,-41.04712 z m -61.93763,35.31316 c -4.50853,-0.58885 -7.896,-1.32286 -10.84982,-5.34721 -1.17513,-1.59928 -2.05896,-3.38904 -2.93727,-5.1788 -37.79395,9.44008 -69.12524,21.03692 -101.13954,45.28286 -5.44275,4.1548 -10.7597,8.48035 -15.95087,12.97661 -5.5358,4.8269 -12.28315,12.90461 -18.97973,15.6932 -2.02807,0.84436 -4.48977,0.95236 -6.32805,-0.45528 -1.19279,-0.91404 -1.82504,-2.24853 -1.9751,-3.77812 -0.24054,-2.44829 1.11113,-4.07545 2.6217,-5.69796 2.15459,-2.28878 4.34706,-4.53653 6.57742,-6.74324 2.23035,-2.20671 4.49712,-4.37161 6.8003,-6.4947 2.30245,-2.12308 4.6402,-4.20281 7.01327,-6.23918 2.37233,-2.0356 4.77812,-4.02667 7.21739,-5.97322 2.43927,-1.94732 4.91017,-3.84819 7.4127,-5.7026 2.50327,-1.85518 5.0367,-3.66314 7.60028,-5.42386 2.56358,-1.76072 5.15586,-3.47345 7.77682,-5.13815 2.62096,-1.66471 5.26914,-3.28025 7.94454,-4.84664 2.67541,-1.56637 5.37581,-3.08241 8.10123,-4.54814 2.72616,-1.46572 5.47585,-2.88072 8.24908,-4.24501 2.77397,-1.36352 5.56965,-2.67515 8.38701,-3.93491 2.81737,-1.26053 5.65497,-2.46804 8.5128,-3.62249 2.85783,-1.15446 5.73405,-2.25549 8.62865,-3.3031 2.89461,-1.04838 5.80614,-2.04217 8.73459,-2.98139 2.9277,-0.93997 5.87049,-1.82537 8.82837,-2.65617 2.95787,-0.83005 5.92861,-1.60509 8.91223,-2.32518 -2.68239,-5.12073 -2.99576,-9.40639 -1.53595,-15.05905 0.37516,-1.45295 0.90811,-2.88963 1.40906,-4.29728 l -3.4294,-5.38786 c -34.81805,20.38071 -74.55621,27.6884 -113.36199,15.96845 -34.54441,-10.43309 -66.2652,-37.3236 -83.63837,-70.46955 -18.86277,-35.98447 -22.31312,-76.62742 -11.38497,-115.85576 10.51218,-37.73939 35.75817,-68.36156 68.35948,-87.04775 4.3717,-2.5052 8.9045,-4.65384 13.31262,-7.08122 -21.62681,-17.07528 -41.77063,-25.73604 -69.09655,-26.38644 -66.73194,4.34605 -129.73326,37.63718 -186.57535,72.54269 -17.06753,10.48071 -35.184389,21.15538 -50.333089,34.56985 9.59083,8.72813 17.62475,20.57351 26.095619,30.58269 l 60.10156,71.19543 217.10777,255.58582 c 45.17244,-41.64062 105.34131,-82.82364 163.4457,-100.71425 6.68114,-2.12193 13.87757,-3.40995 20.34024,-6.11142 0.0728,-0.0302 0.14565,-0.057 0.21847,-0.086 l 0.44853,-0.19285 0.23117,-0.28332 0.27916,-0.80371 c -1.4587,-0.002 -2.70445,0.16143 -4.1455,0.41114 -3.65228,0.63182 -7.41822,-0.11846 -10.40294,-2.50984 -5.42877,-4.34955 -5.91096,-11.83494 -8.60327,-17.88713 z M 430.63106,313.84897 c -2.08545,0.12775 -4.16647,0.30894 -6.24309,0.54355 -2.07661,0.23538 -4.14624,0.52418 -6.20888,0.86642 -2.06337,0.34224 -4.11756,0.73751 -6.16254,1.18581 -2.04425,0.44832 -4.07709,0.94927 -6.09853,1.50289 -2.02145,0.55362 -4.02855,1.15911 -6.02131,1.81648 -1.99349,0.65737 -3.97006,1.36583 -5.92971,2.1254 -1.9604,0.75957 -3.90166,1.56909 -5.82379,2.42855 -1.92214,0.86023 -3.82295,1.76963 -5.70242,2.72819 -1.88021,0.9578 -3.7365,1.96397 -5.5689,3.01855 -1.83313,1.05379 -3.64051,2.15444 -5.42215,3.30193 -1.7809,1.14826 -3.53422,2.34144 -5.25995,3.57951 -1.72573,1.23809 -3.42167,2.5203 -5.08782,3.84665 -1.66614,1.32634 -3.29993,2.69489 -4.90134,4.10564 -1.60215,1.40998 -3.17045,2.86098 -4.70493,4.35303 -1.53448,1.49127 -3.03291,3.02165 -4.49529,4.59112 -1.46312,1.56947 -2.88872,3.17534 -4.27681,4.8176 -1.38735,1.64303 -2.73609,3.3209 -4.0462,5.03361 -1.30938,1.71272 -2.57793,3.45835 -3.80566,5.23688 -1.22845,1.77776 -2.41462,3.58649 -3.55849,5.42619 -1.14313,1.83969 -2.24323,3.70765 -3.30029,5.60387 -1.05633,1.89699 -2.06779,3.81955 -3.03438,5.76765 -0.96658,1.94887 -1.88719,3.92176 -2.76183,5.91863 -0.87464,1.9961 -1.70219,4.01389 -2.48267,6.05335 -0.78047,2.03869 -1.51313,4.09673 -2.19799,6.17414 -0.68411,2.07664 -1.31967,4.16991 -1.90669,6.27983 -0.58627,2.10993 -1.12327,4.23379 -1.61097,6.37159 -0.48771,2.1378 -0.92502,4.28682 -1.31196,6.44707 -0.38693,2.16026 -0.72347,4.32943 -1.00962,6.50748 -0.28614,2.17729 -0.52117,4.36116 -0.70507,6.55161 -0.18391,2.18967 -0.31705,4.38284 -0.39944,6.57948 -0.0817,2.19664 -0.11181,4.39406 -0.0905,6.59226 0.0206,2.19895 0.0927,4.39561 0.21627,6.58993 0.12358,2.19432 0.29792,4.38438 0.52302,6.57019 0.22583,2.1858 0.50241,4.36425 0.82976,6.53534 0.32735,2.17109 0.70508,4.33251 1.1332,6.48425 0.42812,2.15174 0.90626,4.29108 1.43443,6.41804 0.52817,2.12695 1.10562,4.23921 1.73235,6.33674 0.62674,2.09676 1.30203,4.17649 2.02586,6.23918 0.72384,2.06192 1.49512,4.10411 2.31385,6.12653 0.81947,2.02242 1.68527,4.0224 2.59742,5.99993 0.91216,1.97752 1.87028,3.93027 2.87438,5.85823 1.00336,1.92797 2.05124,3.82884 3.14361,5.70261 1.09238,1.87376 2.22778,3.7185 3.40623,5.53419 1.17844,1.81493 2.39844,3.59849 3.66,5.3507 1.26156,1.75143 2.56322,3.46956 3.90496,5.1544 1.34175,1.68486 2.72211,3.33408 4.1411,4.94768 1.41898,1.61284 2.87438,3.1885 4.36618,4.72701 1.49255,1.53773 3.02003,3.03635 4.58246,4.49588 1.56243,1.45875 3.15796,2.87647 4.78659,4.25314 1.62789,1.37668 3.28741,2.71038 4.97858,4.00112 1.69042,1.29073 3.41027,2.53693 5.15953,3.73863 1.74854,1.20169 3.52429,2.3577 5.32726,3.46802 1.80297,1.10955 3.63058,2.17224 5.48284,3.18811 1.85299,1.01509 3.72805,1.98178 5.62518,2.90008 1.89786,0.91831 3.81595,1.78744 5.75427,2.60741 1.93833,0.81918 3.89429,1.58767 5.86793,2.30543 1.97436,0.71854 3.96418,1.38519 5.96944,1.99997 2.00453,0.61556 4.02266,1.17885 6.0544,1.68988 2.03174,0.51025 4.07379,0.96825 6.12613,1.37396 2.05307,0.40496 4.11424,0.75687 6.1835,1.05574 2.06925,0.29887 4.14404,0.54393 6.22432,0.73519 2.08103,0.19125 4.16501,0.32868 6.25192,0.4123 2.08765,0.0836 4.17566,0.11301 6.26405,0.0883 2.08839,-0.024 4.17493,-0.10221 6.25963,-0.23461 2.08177,-0.13241 4.15949,-0.31823 6.23316,-0.55749 2.07294,-0.23925 4.13925,-0.53194 6.19895,-0.87803 2.0597,-0.34611 4.1102,-0.74526 6.1515,-1.19744 2.04057,-0.45141 4.06974,-0.95585 6.08751,-1.51334 2.01777,-0.55671 4.02118,-1.16491 6.01026,-1.82459 1.98908,-0.66048 3.9616,-1.37165 5.91758,-2.13355 1.95598,-0.76267 3.89319,-1.5749 5.81166,-2.43667 1.91846,-0.86255 3.81522,-1.77389 5.69027,-2.734 1.8758,-0.96011 3.72806,-1.96784 5.55677,-3.02319 1.82871,-1.05612 3.63168,-2.1587 5.40891,-3.30774 1.77795,-1.14827 3.5276,-2.34222 5.24891,-3.58184 1.72206,-1.23962 3.41395,-2.52263 5.07568,-3.84897 1.66174,-1.32635 3.29147,-2.69489 4.88921,-4.10564 1.59847,-1.41075 3.16273,-2.86214 4.69279,-4.35419 1.53079,-1.49127 3.02555,-3.02126 4.48425,-4.58996 1.45945,-1.5687 2.88137,-3.17417 4.26578,-4.81643 1.38442,-1.64226 2.72947,-3.31935 4.03517,-5.0313 1.30643,-1.71116 2.57204,-3.45525 3.79683,-5.23222 1.22478,-1.77699 2.40727,-3.58456 3.54745,-5.42271 1.14093,-1.83815 2.23808,-3.70457 3.29147,-5.59923 1.05339,-1.89467 2.06227,-3.81567 3.02665,-5.763 0.96364,-1.94656 1.88168,-3.91711 2.75411,-5.91166 0.87243,-1.99379 1.69741,-4.00925 2.47495,-6.04639 0.77826,-2.03714 1.50872,-4.09286 2.19136,-6.16717 0.68265,-2.07431 1.31637,-4.16527 1.90118,-6.27287 0.5848,-2.1076 1.12032,-4.22875 1.60656,-6.36345 0.4855,-2.1347 0.92135,-4.28102 1.30754,-6.43895 0.38619,-2.15715 0.72199,-4.32321 1.00741,-6.49818 0.28468,-2.17497 0.5186,-4.35573 0.70177,-6.54231 0.1839,-2.18735 0.31631,-4.3778 0.39723,-6.57136 0.0816,-2.19354 0.11181,-4.38787 0.0905,-6.58296 -0.0206,-2.19588 -0.0927,-4.38941 -0.21627,-6.58064 -0.12358,-2.19123 -0.29792,-4.3782 -0.52302,-6.56091 -0.22509,-2.18269 -0.50094,-4.35844 -0.82755,-6.52721 -0.32661,-2.168 -0.70324,-4.32631 -1.12989,-6.47494 -0.42739,-2.14943 -0.90444,-4.28606 -1.43113,-6.40993 -0.52669,-2.12386 -1.10266,-4.23339 -1.72793,-6.3286 -0.62527,-2.09444 -1.29908,-4.17147 -2.02145,-6.23106 -0.72163,-2.05958 -1.49107,-4.09944 -2.30833,-6.11956 -0.81652,-2.0201 -1.68013,-4.01775 -2.5908,-5.99295 -0.90995,-1.97521 -1.8655,-3.92563 -2.86666,-5.85127 -1.00115,-1.92642 -2.04646,-3.82573 -3.13588,-5.69796 -1.08943,-1.87143 -2.2219,-3.71424 -3.3974,-5.52838 -1.17549,-1.81338 -2.39255,-3.5954 -3.65118,-5.34605 -1.25862,-1.75065 -2.55696,-3.46764 -3.89503,-5.15093 -1.3388,-1.68406 -2.71585,-3.33213 -4.13116,-4.94419 -1.41531,-1.61284 -2.8674,-3.18812 -4.35626,-4.72584 -1.48886,-1.53773 -3.01267,-3.03597 -4.57142,-4.49472 -1.55875,-1.45875 -3.1506,-2.87647 -4.77555,-4.25314 -1.62496,-1.37669 -3.2808,-2.71039 -4.96755,-4.00113 -1.68675,-1.2915 -3.40255,-2.53848 -5.1474,-3.74094 -1.74559,-1.20247 -3.51767,-2.35925 -5.31622,-3.47035 -1.7993,-1.11032 -3.62323,-2.17419 -5.4718,-3.1916 -1.84858,-1.01663 -3.71959,-1.98487 -5.61304,-2.90472 -1.89345,-0.92063 -3.8075,-1.79131 -5.74214,-2.61206 -1.93391,-0.8215 -3.88621,-1.59269 -5.85689,-2.31356 -1.96995,-0.72008 -3.95572,-1.38906 -5.95731,-2.00694 -2.00084,-0.61866 -4.0153,-1.18465 -6.04337,-1.69801 -2.02806,-0.51413 -4.0668,-0.97559 -6.11619,-1.38441 -2.04867,-0.40882 -4.10615,-0.76423 -6.17247,-1.06619 -2.06558,-0.30276 -4.13704,-0.55168 -6.21439,-0.7468 -2.07809,-0.19513 -4.15912,-0.33681 -6.24309,-0.42508 -2.08398,-0.0875 -4.16868,-0.12158 -6.25412,-0.10221 -2.08544,0.0201 -4.16942,0.0937 -6.25191,0.22068 z"
     id="path1"
     style="display:inline;stroke-width:1.13205" />
  <path
     fill="#302f3c"
     d="m 860.69448,441.04839 c 0.0684,-0.0198 0.13461,-0.0476 0.20523,-0.057 2.32599,-0.33566 4.45998,-0.0337 6.37439,1.5145 1.26782,1.02669 2.24102,2.78975 2.24764,4.49007 0.0121,3.26941 -2.38777,5.52839 -5.01499,6.74905 -6.87754,3.19276 -16.70891,3.57371 -24.14368,5.16022 -13.72751,2.93028 -27.14826,6.36113 -40.4013,11.17059 q -3.63243,1.30661 -7.22954,2.71542 -3.59821,1.40765 -7.15781,2.91867 -3.5607,1.50985 -7.08057,3.11958 -3.51987,1.61091 -6.99782,3.32053 -3.47794,1.70962 -6.91065,3.5168 -3.4327,1.80717 -6.81796,3.71075 -3.38636,1.90358 -6.72196,3.90356 -3.33561,1.99881 -6.61825,4.0917 -3.28374,2.0929 -6.51232,4.27754 -3.22857,2.18464 -6.39976,4.46103 -3.1712,2.27524 -6.28392,4.63991 -3.11161,2.36466 -6.16253,4.81643 -3.05093,2.45177 -6.03786,4.98949 -2.98692,2.53771 -5.90764,5.15906 -2.92073,2.62017 -5.77414,5.32397 -2.85231,2.70264 -5.63511,5.48542 c -10.33563,10.24377 -19.8426,21.39348 -29.75672,32.0844 -0.15117,0.0789 -0.29461,0.17305 -0.4513,0.23694 -1.90448,0.77002 -4.23708,0.68175 -6.10847,-0.0941 -0.90038,-0.98838 -1.31526,-1.34029 -1.56242,-2.73865 -0.42812,-2.4146 0.72383,-4.97322 2.02586,-6.87332 12.44313,-18.16238 28.24946,-33.60588 44.837,-47.49072 47.22148,-39.52683 96.64646,-60.55445 155.9966,-70.60196 z"
     id="path2"
     style="display:inline;stroke-width:1.13205" />
  <path
     fill="#302f3c"
     d="m 818.33259,393.22254 c 0.0684,-0.0198 0.13462,-0.0476 0.20524,-0.057 2.32598,-0.33565 4.45997,-0.0337 6.37439,1.51451 1.26781,1.02669 2.24102,2.78974 2.24764,4.49006 0.0121,3.26942 -2.38778,5.5284 -5.01499,6.74906 -6.87755,3.19276 -16.70892,3.57371 -24.14369,5.16021 -13.7275,2.93028 -27.14826,6.36113 -40.4013,11.1706 q -3.63242,1.3066 -7.22953,2.71542 -3.59822,1.40765 -7.15781,2.91866 -3.5607,1.50985 -7.08058,3.1196 -3.51987,1.6109 -6.99781,3.32051 -3.47795,1.70962 -6.91065,3.5168 -3.43271,1.80718 -6.81796,3.71075 -3.38636,1.90358 -6.72197,3.90356 -3.3356,1.99882 -6.61824,4.09171 -3.28375,2.09289 -6.51232,4.27753 -3.22857,2.18464 -6.39977,4.46104 -3.1712,2.27523 -6.28391,4.6399 -3.11161,2.36466 -6.16254,4.81644 -3.05092,2.45176 -6.03785,4.98948 -2.98693,2.53772 -5.90765,5.15906 -2.92072,2.62017 -5.77414,5.32398 -2.85231,2.70264 -5.6351,5.48542 c -10.33563,10.24377 -19.8426,21.39347 -29.75673,32.0844 -0.15116,0.0789 -0.29461,0.17304 -0.45129,0.23693 -1.90448,0.77002 -4.23709,0.68175 -6.10847,-0.0941 -0.90038,-0.98837 -1.31526,-1.34029 -1.56243,-2.73864 -0.42812,-2.41461 0.72384,-4.97323 2.02586,-6.87332 12.44314,-18.16239 28.24947,-33.60588 44.83701,-47.49073 47.22147,-39.52682 96.64645,-60.55445 155.99659,-70.60195 z"
     id="path2-0"
     style="display:inline;stroke-width:1.13205" />
  <path
     fill="#302f3c"
     d="m 772.35213,341.2142 c 0.0684,-0.0198 0.13462,-0.0476 0.20524,-0.0569 2.32598,-0.33566 4.45997,-0.0337 6.37439,1.51449 1.26781,1.0267 2.24102,2.78975 2.24764,4.49008 0.0121,3.26941 -2.38777,5.52839 -5.01499,6.74905 -6.87755,3.19276 -16.70892,3.5737 -24.14368,5.16022 -13.72751,2.93028 -27.14827,6.36113 -40.40131,11.17059 q -3.63242,1.30661 -7.22953,2.71542 -3.59822,1.40765 -7.15781,2.91867 -3.5607,1.50985 -7.08058,3.11958 -3.51987,1.6109 -6.99781,3.32053 -3.47795,1.70962 -6.91065,3.51679 -3.4327,1.80718 -6.81796,3.71076 -3.38636,1.90358 -6.72197,3.90356 -3.3356,1.99881 -6.61824,4.0917 -3.28375,2.09289 -6.51232,4.27754 -3.22857,2.18464 -6.39977,4.46103 -3.17119,2.27524 -6.28391,4.6399 -3.11161,2.36467 -6.16254,4.81643 -3.05092,2.45178 -6.03785,4.9895 -2.98693,2.53771 -5.90765,5.15905 -2.92072,2.62018 -5.77414,5.32398 -2.85231,2.70263 -5.6351,5.48542 c -10.33563,10.24377 -19.8426,21.39347 -29.75672,32.0844 -0.15117,0.0789 -0.29461,0.17305 -0.4513,0.23693 -1.90448,0.77003 -4.23709,0.68176 -6.10847,-0.0941 -0.90038,-0.98837 -1.31526,-1.34028 -1.56243,-2.73864 -0.42812,-2.4146 0.72384,-4.97323 2.02586,-6.87332 12.44314,-18.16239 28.24947,-33.60587 44.83701,-47.49072 47.22147,-39.52683 96.64645,-60.55446 155.99659,-70.60196 z"
     id="path2-9"
     style="display:inline;stroke-width:1.13205" />
  <path
     fill="#302f3c"
     d="m 733.8433,297.84105 c 0.0684,-0.0198 0.13461,-0.0476 0.20523,-0.0569 2.32598,-0.33565 4.45998,-0.0337 6.37439,1.51451 1.26782,1.02669 2.24102,2.78973 2.24764,4.49006 0.0121,3.26942 -2.38777,5.5284 -5.01499,6.74905 -6.87754,3.19276 -16.70891,3.57371 -24.14368,5.16022 -13.72751,2.93028 -27.14827,6.36113 -40.40131,11.1706 -2.42161,0.87107 -4.83146,1.77621 -7.22953,2.71542 -2.39881,0.93843 -4.78474,1.91132 -7.15781,2.91866 -2.3738,1.00657 -4.73399,2.04643 -7.08057,3.11959 -2.34659,1.07393 -4.67919,2.18077 -6.99782,3.32052 -2.31863,1.13975 -4.62218,2.31201 -6.91065,3.51679 -2.28847,1.20479 -4.56112,2.44172 -6.81796,3.71077 -2.25757,1.26905 -4.49823,2.57023 -6.72196,3.90355 -2.22374,1.33255 -4.42982,2.69645 -6.61825,4.09171 -2.18916,1.39525 -4.35993,2.8211 -6.51232,4.27753 -2.15238,1.45643 -4.28564,2.94344 -6.39977,4.46104 -2.11413,1.51682 -4.20876,3.06345 -6.28391,4.63989 -2.07441,1.57645 -4.12858,3.18193 -6.16253,4.81644 -2.03395,1.63451 -4.04657,3.29768 -6.03786,4.98949 -1.99128,1.69181 -3.9605,3.4115 -5.90765,5.15905 -20.92755,24.56356 -22.20379,-2.67027 -2.42529,-14.06606 47.22148,-39.52682 96.64646,-60.55445 155.9966,-70.60195 z"
     id="path2-9-4"
     style="display:inline;stroke-width:1.13205" />
  <path
     fill="#302f3c"
     d="m 687.06737,250.27385 c 0.0684,-0.0198 0.13461,-0.0476 0.20523,-0.0569 2.32599,-0.33566 4.45998,-0.0337 6.37439,1.51449 1.26782,1.0267 2.24103,2.78975 2.24765,4.49008 0.0121,3.26941 -2.38778,5.52839 -5.015,6.74905 -6.87754,3.19276 -16.70891,3.5737 -24.14368,5.16022 -13.7275,2.93028 -27.14826,6.36113 -40.4013,11.17059 -2.42161,0.87107 -4.83146,1.77621 -7.22954,2.71542 -2.39881,0.93843 -4.78474,1.91132 -7.15781,2.91867 -2.3738,1.00657 -4.73399,2.04643 -7.08057,3.11958 -2.34658,1.07393 -4.67919,2.18078 -6.99782,3.32053 -2.31863,1.13975 -4.62218,2.31201 -6.91065,3.51679 -2.28847,1.20479 -4.56112,2.44171 -6.81796,3.71076 -2.25757,1.26905 -4.49823,2.57024 -6.72196,3.90356 -2.22374,1.33254 -4.42982,2.69644 -6.61825,4.0917 -2.18916,1.39526 -4.35993,2.82111 -6.51231,4.27754 -2.15239,1.45643 -2.48016,1.21646 -4.59429,2.73405 -2.11413,1.51683 -4.20877,3.06346 -6.28392,4.6399 -2.07441,1.57645 0.89537,-0.82154 -1.13858,0.81297 -2.03395,1.63452 -4.04657,3.29769 -6.03785,4.9895 -1.99129,1.69181 -3.41064,2.78389 -5.35815,4.53105 -33.30044,29.87458 -26.53047,5.60467 -3.14335,-13.48038 47.22148,-39.52683 89.98558,-54.78169 149.33572,-64.82919 z"
     id="path2-9-8"
     style="display:inline;stroke-width:1.13205" />
  <path
     fill="#302f3c"
     d="m 642.26452,199.87264 c 0.0684,-0.0198 0.13462,-0.0476 0.20524,-0.0569 2.32598,-0.33565 4.45997,-0.0337 6.37439,1.51451 1.26781,1.02669 2.24102,2.78973 2.24764,4.49006 0.0121,3.26942 -2.38778,5.5284 -5.01499,6.74905 -6.87755,3.19277 -16.70892,3.57372 -24.14368,5.16023 -13.72751,2.93028 -27.14827,6.36112 -40.40131,11.17059 -2.42161,0.87107 -4.83146,1.77621 -7.22953,2.71542 -2.39881,0.93843 -4.78475,1.91132 -7.15781,2.91866 -2.3738,1.00657 -4.73399,2.04644 -7.08058,3.11959 -2.34658,1.07393 -4.67918,2.18077 -6.99781,3.32052 -2.31863,1.13975 -4.62218,2.31201 -6.91065,3.5168 -2.28847,1.20479 -4.56112,2.44171 -6.81796,3.71076 -2.25757,1.26905 -4.49823,2.57023 -6.72197,3.90355 -2.22373,1.33255 -4.42981,2.69645 -6.61824,4.09171 -2.18917,1.39525 -4.35994,2.8211 -6.51232,4.27753 -2.15238,1.45643 -4.28564,2.94345 -6.39977,4.46104 -2.11413,1.51682 -4.20877,3.06345 -6.28391,4.63989 -2.07441,1.57645 -4.12859,3.18193 -6.16254,4.81644 -2.03395,1.63452 -4.04656,3.29768 -6.03785,4.98949 -1.99129,1.69181 -3.9605,3.4115 -5.90765,5.15905 -1.94715,1.74679 -3.64529,3.79566 -5.77414,5.32399 -31.31218,22.47941 -56.56956,30.76555 3.34885,-19.39005 47.22147,-39.52682 96.64645,-60.55445 155.99659,-70.60195 z"
     id="path2-9-82"
     style="display:inline;stroke-width:1.13205" />
  <path
     fill="#302f3c"
     d="m 432.9427,323.2902 q 2.90196,-0.13008 5.80503,-0.11033 2.90417,0.0186 5.80393,0.18815 2.89976,0.16957 5.78848,0.48664 2.88872,0.31822 5.75869,0.78512 2.86997,0.4669 5.71455,1.08012 2.84569,0.6144 5.65828,1.37398 2.81259,0.75957 5.58766,1.66316 2.77397,0.90359 5.5027,1.94887 2.72983,1.04529 5.4067,2.22994 2.67687,1.18581 5.29526,2.50636 2.61949,1.3217 5.17388,2.7758 2.55439,1.45528 5.03706,3.03946 2.48378,1.58418 4.89141,3.2938 2.40654,1.71078 4.73142,3.54352 2.32488,1.83157 4.56149,3.7816 2.23661,1.95003 4.37943,4.01273 2.14282,2.06269 4.18854,4.2334 2.04461,2.1707 3.98551,4.44362 1.942,2.27408 3.77476,4.64454 1.83387,2.37047 3.55518,4.8327 1.72022,2.46222 3.32568,5.01039 1.60435,2.54817 3.08844,5.17532 1.48408,2.62714 2.84348,5.32862 1.3605,2.70032 2.59412,5.46799 1.2325,2.76769 2.33591,5.59576 1.10231,2.82808 2.0722,5.70957 0.9699,2.88034 1.80518,5.80829 0.83528,2.92796 1.53263,5.8954 0.69736,2.96745 1.25679,5.96741 0.55942,2.99881 0.97762,6.02432 0.41929,3.02436 0.69735,6.06729 0.27806,3.04294 0.41378,6.09633 0.13572,3.05339 0.1302,6.11027 -0.007,3.05687 -0.15448,6.10909 -0.14896,3.0534 -0.43915,6.09517 -0.2891,3.04178 -0.72053,6.06381 -0.43143,3.02319 -1.00189,6.02084 -0.57157,2.99647 -1.28106,5.96043 -0.70949,2.96512 -1.55691,5.88844 -0.84632,2.92447 -1.82725,5.80132 -0.98203,2.87685 -2.09647,5.70029 -1.11444,2.82226 -2.35799,5.58414 -1.24464,2.76303 -2.61507,5.45753 -1.37154,2.69451 -2.86556,5.31585 -1.49512,2.62018 -3.1094,5.16138 -1.61539,2.5412 -3.34554,4.9953 -1.73124,2.45409 -3.57394,4.81644 -1.84269,2.36349 -3.79352,4.62828 -1.95082,2.26361 -4.00427,4.42619 -2.05344,2.16141 -4.20509,4.21366 -2.15164,2.0534 -4.39598,3.99414 -2.24433,1.93958 -4.57583,3.76186 -2.33261,1.82112 -4.74576,3.52144 -2.41426,1.69917 -4.90355,3.27291 -2.49039,1.57256 -5.0503,3.01622 -2.55991,1.44366 -5.18381,2.75258 -2.62501,1.31009 -5.30629,2.48197 -2.68239,1.17305 -5.41553,2.20671 -2.73315,1.03367 -5.51043,1.92449 -2.77838,0.89081 -5.59428,1.63877 -2.8159,0.7468 -5.66379,1.34841 -2.8468,0.60046 -5.71897,1.05458 -2.87217,0.45411 -5.762,0.75957 -2.88872,0.30546 -5.78958,0.46109 -2.91631,0.15679 -5.83593,0.1626 -2.91962,0.006 -5.83703,-0.13937 -2.91631,-0.14519 -5.82269,-0.44134 -2.90638,-0.29733 -5.7951,-0.74332 -2.88873,-0.44599 -5.75317,-1.04179 -2.86445,-0.59582 -5.69801,-1.33913 -2.83355,-0.74332 -5.62848,-1.6318 -2.79494,-0.8885 -5.54574,-1.92216 -2.74969,-1.03251 -5.44863,-2.20672 -2.69783,-1.17304 -5.33829,-2.48545 -2.64045,-1.31242 -5.21691,-2.75955 -2.57536,-1.44714 -5.0812,-3.02668 -2.50474,-1.57838 -4.93334,-3.28567 -2.4275,-1.70614 -4.77334,-3.53655 -2.34585,-1.8304 -4.60232,-3.78044 -2.25758,-1.95004 -4.42136,-4.01388 -2.16268,-2.06502 -4.22716,-4.23805 -2.06448,-2.17419 -4.02413,-4.45175 -1.95965,-2.27872 -3.81117,-4.655 -1.85152,-2.37743 -3.58939,-4.84663 -1.73787,-2.47035 -3.35767,-5.02665 -1.62091,-2.55746 -3.11934,-5.19506 -1.49953,-2.6376 -2.87327,-5.34953 -1.37375,-2.71194 -2.61839,-5.49123 -1.24575,-2.78046 -2.35909,-5.6213 -1.11444,-2.84085 -2.09427,-5.73629 -0.97983,-2.89544 -1.82283,-5.83733 -0.84301,-2.94305 -1.54808,-5.92559 -0.70398,-2.98254 -1.26892,-5.99761 -0.56385,-3.01622 -0.98645,-6.05684 -0.42261,-3.04061 -0.70287,-6.10097 -0.28027,-3.0592 -0.41709,-6.12885 -0.13682,-3.06965 -0.1302,-6.14394 0.008,-3.07314 0.15778,-6.14279 0.15117,-3.06848 0.44468,-6.12652 0.29351,-3.05803 0.73046,-6.09749 0.43694,-3.03829 1.01403,-6.05103 0.57818,-3.01274 1.2965,-5.9918 0.71832,-2.97906 1.57457,-5.91746 0.85624,-2.93842 1.84931,-5.82805 0.99307,-2.89078 2.11965,-5.72583 1.12658,-2.83504 2.38446,-5.60969 1.25789,-2.77349 2.64377,-5.47844 1.38588,-2.70497 2.89645,-5.3356 1.51056,-2.62947 3.14251,-5.1788 1.63194,-2.54817 3.38084,-5.00923 1.7489,-2.46107 3.61146,-4.82805 1.86145,-2.36815 3.83213,-4.63642 1.97069,-2.26827 4.044,-4.432 2.0744,-2.16257 4.24702,-4.21598 2.17261,-2.0534 4.4379,-3.99181 2.26641,-1.93843 4.61998,-3.75722 2.35357,-1.8188 4.78989,-3.51332 2.43633,-1.69452 4.94879,-3.26128 2.51136,-1.56677 5.09444,-3.00113 2.58197,-1.43436 5.22795,-2.73283 2.64707,-1.29965 5.35043,-2.45991 2.70445,-1.16027 5.45856,-2.17884 2.75521,-1.01857 5.55456,-1.89428 2.79824,-0.87455 5.6351,-1.60393 2.83687,-0.72821 5.70352,-1.31009 2.86776,-0.58071 5.75869,-1.01276 2.89093,-0.43206 5.79841,-0.71428 2.90749,-0.28106 5.8249,-0.41231 z m 77.42618,207.60033 c 14.07508,-16.0184 30.93737,-38.28526 30.16939,-61.43713 -0.60908,-18.32964 -13.46158,-54.68926 -21.81769,-71.94921 -3.6258,-7.49004 -8.57018,-14.94756 -11.40594,-22.73609 19.54026,24.90564 29.64969,41.70567 38.55861,73.52062 -4.26026,-37.1006 -10.66223,-64.09331 -40.0129,-88.51811 -16.45403,-13.69322 -35.65444,-21.58279 -56.39632,-24.43293 -4.60011,-0.63298 -10.2959,-1.37281 -14.89711,-0.64459 -0.18427,0.029 -0.36523,0.0778 -0.5473,0.1173 -28.87951,2.02553 -56.54527,14.4133 -75.85492,37.5164 -18.47216,22.10194 -29.51839,52.80077 -27.69004,82.34861 q 0.0883,1.43669 0.20965,2.86989 0.12248,1.43436 0.27806,2.86524 0.15558,1.42971 0.34426,2.85595 0.18868,1.42507 0.41047,2.84549 0.22178,1.42043 0.47778,2.83504 0.25488,1.41462 0.54287,2.82111 0.2891,1.40765 0.61019,2.80717 0.32109,1.39951 0.67418,2.78974 0.35419,1.39022 0.74039,2.77117 0.38619,1.38093 0.80438,2.75141 0.4193,1.37048 0.86949,2.73052 0.45019,1.35886 0.93238,2.70612 0.48219,1.34725 0.99527,2.68174 0.51309,1.33447 1.05817,2.65501 0.54398,1.32055 1.11996,2.62599 0.57488,1.3066 1.18065,2.59695 0.60577,1.29035 1.24133,2.56559 0.63557,1.27409 1.30092,2.53191 0.66536,1.25782 1.3605,2.49823 0.69405,1.2404 1.41788,2.46223 0.72274,1.22181 1.47416,2.42389 0.75252,1.20324 1.53153,2.38557 0.78011,1.18233 1.5867,2.34492 0.8077,1.16259 1.64187,2.3031 0.83418,1.14053 1.69373,2.26015 0.86066,1.11845 1.7478,2.21484 0.88604,1.09638 1.79746,2.16953 0.91252,1.07316 1.84931,2.12193 0.93679,1.04877 1.89676,2.07315 0.96107,1.02438 1.94641,2.0232 0.98424,1 1.99165,1.97326 1.00742,0.97328 2.038,1.91985 c 20.6845,19.04274 49.98882,28.36319 77.28936,26.27495 22.94869,-1.75492 48.36129,-13.57011 64.8407,-30.53971 z"
     id="path3"
     style="display:inline;stroke-width:1.13205" />
  <path
     fill="#302f3c"
     d="m 365.06983,376.2106 c 0.61681,2.80716 -4.56149,14.42491 -5.68366,17.74079 -2.89976,8.57133 -4.58025,18.41441 -5.6991,27.40037 -4.44453,35.7127 2.52129,69.98523 20.55981,100.60856 5.61525,9.53299 12.18825,18.40861 18.66747,27.297 -2.30723,-1.36467 -4.55267,-2.87337 -6.81797,-4.3147 -18.8087,-13.43653 -32.50752,-35.94034 -37.98704,-58.99581 -8.70369,-36.62442 -1.43995,-77.72498 16.96049,-109.73621 z"
     id="path4"
     style="display:inline;stroke-width:1.13205" />
  <path
     fill="#dd5c5b"
     d="m 60.345681,482.21399 1.61451,-0.18119 c 1.04051,1.67478 0.16882,4.83386 -0.10814,6.77112 4.41584,7.48307 11.58138,13.74664 17.25731,20.24947 9.17043,10.50858 18.12018,21.24829 27.163709,31.87883 l 130.58289,152.23164 99.61021,116.83485 c 15.01408,17.63278 29.1333,36.60932 45.34016,53.0017 11.89144,-5.17415 23.31833,-11.64794 34.84454,-17.65368 l 51.69469,-26.61989 q 88.48233,-45.56044 177.4612,-90.03727 c 2.7508,2.85827 5.22574,6.05569 7.75807,9.12998 l -10.51107,5.00226 c -19.14524,8.92556 -38.04112,18.68852 -56.99437,28.074 L 378.41556,875.93173 C 366.3873,863.08984 355.13364,849.34668 343.65708,835.95659 L 284.97451,767.57761 Q 164.13472,628.11121 46.78832,485.37423 c 4.480501,-1.1893 9.041661,-2.12542 13.557361,-3.16024 z"
     id="path5"
     style="display:inline;stroke-width:1.13205" />
  <path
     fill="#dd5c5b"
     d="m 959.62278,563.6021 c 7.2957,4.51446 15.0825,14.83374 21.1016,21.46084 -8.5216,4.80946 -17.6854,8.75483 -26.48293,13.01378 l -53.23946,25.59668 -157.80066,76.18608 -10.21646,5.04292 -6.17578,-6.54812 c 6.36998,-4.30425 13.64585,-7.38319 20.5256,-10.68512 l 31.47473,-15.02189 119.78162,-57.57539 34.20898,-16.12408 c 9.10864,-4.26592 18.27355,-8.26007 26.78636,-13.76987 0.2471,-7.17066 0.067,-14.39821 0.036,-21.57583 z"
     id="path6"
     style="display:inline;stroke-width:1.13205" />
</svg>
